# https://github.com/mikedh/trimesh
mtllib material.mtl
usemtl material_0
v 0.36305973 0.00514669 0.49895653
v 0.36305973 0.05239663 0.49431012
v 0.36305973 0.05216045 0.49640135
v 0.36305973 0.05239663 0.49431012
v 0.09946832 0.05239663 0.49431012
v 0.09946832 0.05216045 0.49640135
v 0.36305973 0.05216045 0.49640135
v 0.09946832 0.05239663 0.49431012
v 0.00000000 0.06340287 0.49431012
v 0.00000000 0.06316668 0.49640135
v 0.09946832 0.05216045 0.49640135
v 0.00000000 0.06340287 0.49431012
v -0.09946836 0.05239663 0.49431012
v -0.09946836 0.05216045 0.49640135
v 0.00000000 0.06316668 0.49640135
v -0.09946836 0.05239663 0.49431012
v -0.36305973 0.05239663 0.49431012
v -0.36305973 0.05216045 0.49640135
v -0.09946836 0.05216045 0.49640135
v -0.36305973 0.05239663 0.49431012
v -0.36305973 0.00514669 0.49895653
v -0.36305973 0.05216045 0.49640135
v -0.36305973 -0.09941052 -0.50000000
v 0.36305973 -0.09941052 -0.50000000
v 0.36305973 -0.09941039 0.47788017
v -0.36305973 -0.09941039 0.47788017
v 0.36305973 0.09952620 -0.50000000
v -0.36305973 0.09952620 -0.50000000
v -0.36305973 0.09952633 0.47788017
v 0.36305973 0.09952633 0.47788017
v 0.36305973 -0.09952633 0.49175503
v -0.36305973 -0.09952633 0.49175503
v -0.36305973 0.09952633 0.49071143
v 0.36305973 0.09952633 0.49071143
v 0.36305973 -0.09941052 -0.50000000
v 0.36305973 0.09952620 -0.50000000
v 0.36305973 0.09952633 0.47788017
v 0.36305973 -0.09941039 0.47788017
v -0.36305973 0.09952620 -0.50000000
v -0.36305973 -0.09941052 -0.50000000
v -0.36305973 -0.09941039 0.47788017
v -0.36305973 0.09952633 0.47788017
v 0.36305973 0.05239663 0.49431012
v 0.36305973 0.00514669 0.49895653
v 0.36305973 -0.09952633 0.49175503
v 0.36305973 0.09952633 0.49071143
v -0.36305973 -0.09952633 0.49175503
v -0.36305973 0.00514669 0.49895653
v -0.36305973 0.05239663 0.49431012
v -0.36305973 0.09952633 0.49071143
v -0.36305973 -0.09941052 -0.50000000
v -0.36305973 0.09952620 -0.50000000
v 0.36305973 0.09952620 -0.50000000
v 0.36305973 -0.09941052 -0.50000000
v -0.36305973 -0.09952633 0.49175503
v 0.36305973 -0.09952633 0.49175503
v 0.36305973 0.00514669 0.49895653
v 0.09946832 0.00503075 0.50000000
v 0.00000000 0.00503075 0.50000000
v -0.09946836 0.00503075 0.50000000
v -0.36305973 0.00514669 0.49895653
v 0.36305973 0.05216045 0.49640135
v 0.09946832 0.05216045 0.49640135
v -0.36305973 0.09952633 0.49071143
v -0.36305973 0.05239663 0.49431012
v -0.09946836 0.05239663 0.49431012
v 0.00000000 0.06340287 0.49431012
v 0.09946832 0.05239663 0.49431012
v 0.36305973 0.05239663 0.49431012
v 0.36305973 0.09952633 0.49071143
v -0.09946836 0.05216045 0.49640135
v -0.36305973 0.05216045 0.49640135
v 0.00000000 0.06316668 0.49640135
vn 1.00000000 0.00000000 0.00000000
vn 1.00000000 0.00000000 0.00000000
vn 1.00000000 0.00000000 0.00000000
vn 0.00000000 0.99383118 0.11090348
vn 0.00000000 0.99383118 0.11090348
vn 0.00000000 0.99383118 0.11090348
vn 0.00000000 0.99383118 0.11090348
vn 0.10929798 0.98788175 0.11019796
vn 0.10929798 0.98788175 0.11019796
vn 0.10929678 0.98787086 0.11029675
vn 0.10929798 0.98788175 0.11019796
vn -0.10929798 0.98788175 0.11019796
vn -0.10929798 0.98788175 0.11019796
vn -0.10929798 0.98788175 0.11019796
vn -0.10929798 0.98788175 0.11019796
vn 0.00000000 0.99382015 0.11100225
vn 0.00000000 0.99383118 0.11090348
vn 0.00000000 0.99382015 0.11100225
vn 0.00000000 0.99383118 0.11090348
vn -1.00000000 0.00000000 0.00000000
vn -1.00000000 0.00000000 0.00000000
vn -1.00000000 0.00000000 0.00000000
vn 0.00000000 -1.00000000 0.00000000
vn 0.00000000 -1.00000000 0.00000000
vn 0.00000000 -0.99999118 -0.00419996
vn 0.00000000 -0.99999118 -0.00419996
vn 0.00000000 1.00000000 0.00000000
vn 0.00000000 1.00000000 0.00000000
vn 0.00000000 1.00000000 0.00000000
vn 0.00000000 1.00000000 0.00000000
vn 0.00000000 -0.99996472 -0.00839970
vn 0.00000000 -0.99996472 -0.00839970
vn 0.00000000 1.00000000 0.00000000
vn 0.00000000 1.00000000 0.00000000
vn 1.00000000 0.00000000 0.00000000
vn 1.00000000 0.00000000 0.00000000
vn 1.00000000 0.00000000 0.00000000
vn 1.00000000 0.00000000 0.00000000
vn -1.00000000 0.00000000 0.00000000
vn -1.00000000 0.00000000 0.00000000
vn -1.00000000 0.00000000 0.00000000
vn -1.00000000 0.00000000 0.00000000
vn 1.00000000 0.00000000 0.00000000
vn 1.00000000 0.00000000 0.00000000
vn 1.00000000 0.00000000 0.00000000
vn 1.00000000 0.00000000 0.00000000
vn -1.00000000 0.00000000 0.00000000
vn -1.00000000 0.00000000 0.00000000
vn -1.00000000 0.00000000 0.00000000
vn -1.00000000 0.00000000 0.00000000
vn 0.00000000 0.00000000 -1.00000000
vn 0.00000000 0.00000000 -1.00000000
vn 0.00000000 0.00000000 -1.00000000
vn 0.00000000 0.00000000 -1.00000000
vn 0.00000000 -0.06860303 0.99764404
vn 0.00170008 -0.07000318 0.99754532
vn 0.00309989 -0.00769973 0.99996555
vn 0.00249993 -0.72018101 0.69378171
vn -0.00190002 -0.72360846 0.69020807
vn -0.00190009 -0.01010048 0.99994718
vn -0.00219992 -0.00839968 0.99996230
vn 0.00349995 0.05669916 0.99838517
vn 0.00439996 0.07609928 0.99709054
vn -0.00030000 0.07619943 0.99709255
vn 0.00000000 0.07610001 0.99710019
vn -0.00489998 0.04879983 0.99879656
vn 0.00359987 0.13259515 0.99116374
vn 0.00000000 0.00000000 1.00000000
vn 0.00000000 0.07610001 0.99710019
vn 0.00030000 0.07619943 0.99709255
vn -0.00119998 0.07369851 0.99727985
vn -0.00349995 0.05669916 0.99838517
vn -0.00219990 0.06389706 0.99795407
vt 0.01880000 0.37130000
vt 0.03760000 0.37530000
vt 0.03760000 0.37440000
vt 0.03760000 0.37530000
vt 0.14440000 0.37500000
vt 0.14440000 0.37410000
vt 0.03760000 0.37440000
vt 0.14440000 0.37500000
vt 0.18500000 0.37530000
vt 0.18500000 0.37450000
vt 0.14440000 0.37410000
vt 0.18500000 0.37530000
vt 0.22560000 0.37470000
vt 0.22560000 0.37390000
vt 0.18500000 0.37450000
vt 0.22560000 0.37470000
vt 0.33240000 0.37440000
vt 0.33240000 0.37360000
vt 0.22560000 0.37390000
vt 0.33240000 0.37440000
vt 0.35120000 0.37040000
vt 0.33240000 0.37360000
vt 0.47660000 0.97080000
vt 0.76910000 0.97070000
vt 0.76960000 0.57800000
vt 0.47670000 0.57790000
vt 0.10150000 0.97090000
vt 0.39440000 0.97090000
vt 0.39440000 0.57810000
vt 0.10150000 0.57820000
vt 0.76950000 0.57300000
vt 0.47670000 0.57380000
vt 0.39440000 0.57290000
vt 0.10150000 0.57320000
vt 0.76910000 0.97070000
vt 0.84930000 0.97080000
vt 0.84950000 0.57810000
vt 0.76960000 0.57800000
vt 0.39440000 0.97090000
vt 0.47660000 0.97080000
vt 0.47670000 0.57790000
vt 0.39440000 0.57810000
vt 0.83110000 0.57090000
vt 0.81190000 0.56910000
vt 0.76950000 0.57300000
vt 0.85010000 0.57270000
vt 0.47670000 0.57380000
vt 0.43270000 0.57040000
vt 0.41350000 0.57130000
vt 0.39440000 0.57290000
vt 0.02660000 0.06700000
vt 0.02660000 0.14760000
vt 0.32090000 0.14760000
vt 0.32090000 0.06700000
vt 0.03040000 0.50890000
vt 0.32510000 0.50890000
vt 0.32510000 0.46970000
vt 0.21820000 0.46980000
vt 0.17780000 0.46980000
vt 0.13740000 0.46980000
vt 0.03040000 0.46970000
vt 0.32510000 0.45060000
vt 0.21820000 0.45060000
vt 0.02930000 0.23770000
vt 0.02930000 0.25680000
vt 0.13610000 0.25690000
vt 0.17640000 0.25070000
vt 0.21670000 0.25690000
vt 0.32360000 0.25680000
vt 0.32360000 0.23770000
vt 0.13740000 0.45060000
vt 0.03040000 0.45060000
vt 0.17780000 0.44620000
f 1/1/1 2/2/2 3/3/3
f 20/20/20 21/21/21 22/22/22
f 27/27/27 28/28/28 29/29/29
f 27/27/27 29/29/29 30/30/30
f 29/29/29 33/33/33 34/34/34
f 29/29/29 34/34/34 30/30/30
f 35/35/35 36/36/36 37/37/37
f 35/35/35 37/37/37 38/38/38
f 39/39/39 40/40/40 41/41/41
f 39/39/39 41/41/41 42/42/42
f 43/43/43 44/44/44 45/45/45
f 43/43/43 45/45/45 38/38/38
f 43/43/43 38/38/38 37/37/37
f 43/43/43 37/37/37 46/46/46
f 41/41/41 47/47/47 48/48/48
f 41/41/41 48/48/48 49/49/49
f 41/41/41 49/49/49 50/50/50
f 41/41/41 50/50/50 42/42/42
f 51/51/51 52/52/52 53/53/53
f 51/51/51 53/53/53 54/54/54
f 4/4/4 5/5/5 6/6/6
f 4/4/4 6/6/6 7/7/7
f 8/8/8 9/9/9 10/10/10
f 8/8/8 10/10/10 11/11/11
f 12/12/12 13/13/13 14/14/14
f 12/12/12 14/14/14 15/15/15
f 16/16/16 17/17/17 18/18/18
f 16/16/16 18/18/18 19/19/19
f 23/23/23 24/24/24 25/25/25
f 23/23/23 25/25/25 26/26/26
f 25/25/25 31/31/31 32/32/32
f 25/25/25 32/32/32 26/26/26
f 55/55/55 56/56/56 57/57/57
f 55/55/55 57/57/57 58/58/58
f 55/55/55 58/58/58 59/59/59
f 55/55/55 59/59/59 60/60/60
f 55/55/55 60/60/60 61/61/61
f 57/57/57 62/62/62 63/63/63
f 57/57/57 63/63/63 58/58/58
f 65/65/65 66/66/66 64/64/64
f 66/66/66 67/67/67 64/64/64
f 64/64/64 67/67/67 70/70/70
f 67/67/67 68/68/68 70/70/70
f 70/70/70 68/68/68 69/69/69
f 71/71/71 72/72/72 61/61/61
f 71/71/71 61/61/61 60/60/60
f 59/59/59 58/58/58 63/63/63
f 59/59/59 63/63/63 73/73/73
f 59/59/59 73/73/73 71/71/71
f 59/59/59 71/71/71 60/60/60
